<?xml version="1.0" encoding="utf-8"?>
<!-- Generator: Adobe Illustrator 19.0.0, SVG Export Plug-In . SVG Version: 6.00 Build 0)  -->
<svg version="1.1" id="Camada_2" xmlns="http://www.w3.org/2000/svg" xmlns:xlink="http://www.w3.org/1999/xlink" x="0px" y="0px"
	 viewBox="0 0 512 512" style="enable-background:new 0 0 512 512;" xml:space="preserve">
<style type="text/css">
	.st0{fill:#0B0F10;}
	.st1{fill:#149A44;}
</style>
<g id="XMLID_1_">
	<g id="XMLID_81_">
		<path id="XMLID_151_" class="st0" d="M267.3,513c0.9-2.3-1.4-2.4-2.4-3c-59.1-37.5-105-87.6-140.2-147.8
			C103.4,325.8,87.1,287.3,75,247C57.9,189.9,49.6,131.5,49.7,71.9c0-20-0.1-39.9-0.3-59.9c-0.1-3.9,1.2-5.1,5-4.8
			c3.5,0.3,7.2,0.1,10.7,0.1c138.7,0,277.4,0,416.2,0c2,0,4.1-0.5,5.9,0.6c0.2,0.5,0.4,0.8,0.4,1.1c0.8,60.8,0.8,121.5-10.8,181.5
			c-11.5,59.7-30.4,116.8-60.5,169.9c-34.6,61.1-80,112.2-139.8,149.8c-1.4,0.9-2.8,1.9-4.1,2.8C270.7,513,269,513,267.3,513z
			 M268.3,14.7c-68.6,0-137.2,0-205.8-0.1c-4.6,0-6.3,1.1-6.1,6c0.4,12.1,0.3,24.2,0.2,36.3c-0.3,41.2,2.4,82.2,9.8,122.8
			c5.5,30.2,12.7,60,23,89c7.8,21.9,16.6,43.3,27,64c9.6,19.1,21,37.4,33.1,55.1c31.5,45.8,70.1,84.3,116.9,114.5
			c3.4,2.2,5.8,2.1,9.2,0c37.2-23.7,68.9-53.5,96.3-87.9c23.8-29.9,42.8-62.8,58.4-97.6c29.7-66.4,44.8-136.2,49.2-208.5
			c1.8-28.8,1-57.6,1-86.5c0-7.1,0-7.1-7-7.1C405.1,14.7,336.7,14.7,268.3,14.7z"/>
		<path id="XMLID_135_" class="st0" d="M268.2,69.7c49.3,0,98.6,0,147.9,0c7.2,0,7.3,0,7.2,7.4c-0.2,36.1-3.7,71.9-10.2,107.4
			c-10.1,55.6-27.9,108.4-57,157.1c-18,30.2-40.1,57.2-67,80.1c-6.1,5.2-12.6,9.8-18.8,14.8c-2.7,2.2-4.9,1.7-7.5-0.2
			c-41.2-31.2-72.9-70.2-96.4-116.1c-29.6-57.7-44.7-119.4-51.1-183.5c-2-19.9-2.8-39.8-3.1-59.8c-0.1-7.1,0-7.1,6.9-7.1
			C168.9,69.7,218.6,69.7,268.2,69.7z M256.7,221.8c-3,4-7.9,2.1-10.8,4.8c-2.8,2.6-6,3-9.5,2.8c-3.4-0.3-6.8-0.8-10.1-1
			c-3.1-0.2-6.7-0.5-8,3c-1.3,3.9,1.3,6.8,4.3,9c1,0.7,2,1.4,3.1,1.8c11.3,4.4,22.8,8.1,34.8,10.2c3,0.5,3.9-0.7,3.8-3.1
			c-0.4-10.7,1.3-21.6-1.1-32.1c-2.2-9.7-3.4-20-12.5-26.6c-8.9-6.4-18-12-29-14.6c-10-2.3-20.3-3.9-29.6-9.4
			c-5.1-3-11.5-2.4-16.9,1.4c-9.4,6.5-19.2,8.6-29.6,2c-3-1.9-5.7-4.8-4-7.9c3.5-6,0.2-10.1-2.3-15c-4.4-8.5-2.6-15.5,4.7-21.6
			c3.1-2.7,5.6-5.9,6.5-10.1c1.1-5.6,4.3-8.7,10-10.1c5.4-1.3,10.8-3.3,14.3-8.1c2.9-4,6.8-5.5,11.6-5c5.7,0.5,11,0,16.1-3.5
			c3.1-2.2,7-3.4,10.9-4.2c2.5-0.5,4.8-0.4,6.5,1.8c5.5,7.5,7.1,5.3,14.1,1.6c1.7-0.9,3.2-1.9,4.8-2.9c8.1-4.9,11.5-4.2,17,3.6
			c4,5.6,7.8,5.6,12,0c3.9-5.2,9.9-6.5,15.8-3.9c8.7,4,17.3,6,25.8-1.1c6-5.1,7-4.8,13.2,0.1c5.4,4.3,11,7,18.4,4.8
			c3.7-1.1,7.8-2.5,12-0.6c5,2.3,10.3,2.5,15.5,1.1c3.5-0.9,5.8,0.2,8.2,2.5c6.4,6,12,13,19.7,17.7c4.2,2.6,6.1,7.4,4.5,12.1
			c-1.5,4.4-0.2,7.1,2.6,10.4c6,7.1,5.7,18.3-0.8,23.1c-5.3,3.9-11.3,6.9-17.1,10.3c-2,1.2-3.9,0.5-5.9-0.4
			c-5.5-2.6-11.2-2.7-17-1.1c-4,1.1-7.6,1-11.4-0.7c-4.5-2.1-8.9-1.8-13.1,1.1c-4.5,3.1-8.4,6.9-11.9,11c-2.5,3-5.1,4.8-9.3,5.3
			c-12.2,1.5-22.7,6.3-30.3,16.8c-5.6,7.7-9,15.6-8.2,25.4c0.8,9.1,0.3,18.4,0,27.6c-0.1,4.4,1.4,6.8,5.6,8.4
			c11,4.3,16.2,13,14.8,24.6c-0.9,7.2-3.8,14.2-9.9,17.9c-10.3,6.2-11.8,15.1-10.5,25.5c0.1,0.5,0,1,0,1.5
			c-0.6,5.3,1.3,9.4,4.9,13.4c9.1,10.2,10.3,22.5-0.1,32.2c-3.5,3.3-5.1,7.3-4.8,12.4c0.4,6.5,0.1,13,0.1,19.4
			c0,2.1,0.2,4.1,1.2,5.9c2.2,4.1,4.6,4.7,8.1,1.7c16.5-14.4,30.9-30.7,43.9-48.3c15.3-20.6,27.9-42.8,38.6-66.1
			c7.1-15.5,13.4-31.4,18.5-47.6c9-28.6,15.8-57.8,20.2-87.5c4-26.7,6-53.4,6.7-80.3c0.1-4.1-1-5.7-5.4-5.7
			c-95.2,0.1-190.4,0.1-285.6,0c-3.8,0-5,1.1-4.9,5c0.3,12.6,1.2,25.2,1.9,37.8c1.1,21.6,4,43.1,7.8,64.3
			c6.1,33.8,15.1,66.7,28.2,98.6c20.7,50.4,49.4,95.2,90.6,131.4c4.7,4.1,9.3,8.7,15.4,11.6c1.3-7.4,1.1-8-3.5-13
			c-11.8-13-12.5-25.3-1.3-37.2c9.1-9.6,4.4-20.9,5-31.6c0-1-1.7-2.1-2.5-3.1c-2.4-2.9-5.1-5.6-7-8.7c-5.6-8.9-4.1-19.9,4.3-27.9
			c4.5-4.3,6.4-8.8,5.9-14.9c-0.4-5.1-0.2-10.2-0.1-15.3c0.1-3.3-0.9-4.8-4.3-5.6c-8.6-2-17.2-4.3-25.7-6.8c-10.5-3-20-7.7-27.5-16
			c-4.7-5.2-6-11.4-3.7-18.1c2.1-6.1,6.4-9.8,13-11c2.3-0.4,4.7-1.2,6.7-2.2c3.9-2.1,7.7-1.5,11.9-0.9
			C242.7,215,247.6,223.8,256.7,221.8z M218.3,137c2.3,1,4.1,0.3,5.8-0.2c7.3-1.9,14.9-2.3,22-5.7c3.7-1.8,7.7-2.1,10.2-6.1
			c1.3-2.1,4-2.1,5.9-0.3c3.7,3.5,9.7,1.3,13.1,5.5c0.3,0.4,2-0.1,2.9-0.5c4.1-1.4,8-3.2,10.9-6.4c3.3-3.7,5.7-4.1,9.3,0.2
			c6.8,8.1,12.1,8.8,19.4,4c1.8-1.2,3.1-3.1,5.4-3.6c6.7,8,14.8,9.6,20.2,4.1c-0.3-2.9-4.7-4.2-3.5-7.9c0.7-0.1,1.2-0.2,1.7-0.1
			c0.5,0.1,1.1,0.4,1.3,0.8c3.1,6.8,7.7,5.9,13,2.8c1.1-0.7,3-0.3,4.5-0.2c2.7,0.2,4-0.8,4.5-3.6c0.9-4.3,2.6-4.9,6.5-2.5
			c1.3,0.8,2.6,1.8,4,2.2c3.6,1,6.9-0.1,9.2-2.9c1.7-2,1.5-4.3-0.8-6.5c-3.1,2.8-6.1,5.8-10.4,2.8c-2-1.4-3.3-3.3-2.2-5.9
			c2.1-0.4,3.2,1.4,4.9,1.7c1.3,0.2,2.4,0.1,3.2-1c0.7-1,0.5-2-0.3-2.8c-2.9-3.1-5.5-7.6-9.4-8.3c-9.5-1.8-18.6-6.8-29-3.9
			c-6.2,1.8-12.3,0.7-17.9-3.5c-4.5-3.4-9.6-4-14.6,0.1c-4.1,3.4-8.8,4.1-14,2.2c-3-1.1-6.1-2.1-9.3-2.6c-5.3-0.8-10.8-1.9-15.1,3.2
			c-4,4.8-10.8,5-15.6,0.8c-7.6-6.6-7.9-6.7-16.6-1.7c-4.1,2.4-8.2,4.9-13,5.8c-2.3,0.4-3.8,0-4.9-2.3c-3.2-6.8-4.3-7.2-11.2-3.8
			c-7.9,4-16.1,6.6-24.9,7c-2.7,0.1-4.4,1.5-5.7,3.7c-1.8,3.2-4.8,5.3-8.2,5.1c-6-0.3-8.9,3.3-11.5,7.7c-2.6,4.4-4.9,9-8.7,12.5
			c-7.3,6.8-8.1,16.3-1.9,24.2c2.1,2.7,3.1,4.6,0,7.2c-1.6,1.3-2.1,3.6-0.9,5.6c1,1.7,2.6,2,4.4,1c1-0.6,1.8,0.1,2.8,0.6
			c5.1,2.9,9.1,2.4,13.4-1.6c2.9-2.6,4.6-5.9,5.6-9.6c0.5-1.8,1.1-3.6,3.2-4.2c3.7-1,6.7-3.3,10-5.1c3.1-1.6,6.1-4.1,9.9-3.5
			c3.5,0.6,4.1-1.2,4.1-4c0-5.8,3.2-9.2,9.1-9.6c2.5-0.2,5-0.8,6.5-2.6c2.8-3.5,7.1-4.5,10.4-7.2c2.2-1.8,6.2-2.9,7.5,1.3
			c1,3.3,2.6,5.6,6,7.4c-5.5,1.9-10,4.6-15.5,4.4C220.3,130.9,218.3,133,218.3,137z M280.4,150.4c-1.9-1.1-3.7-1.9-5.4-3
			c-3.8-2.6-5.8-2-7.3,2.5c-1.4,4.2-2.9,8.4-3.9,12.7c-2.6,11.3,2.8,20.1,9,29.7C282.1,178.8,281.4,164.6,280.4,150.4z M252.8,184.1
			c0-4.8-2-7.1-3.9-9.4c-5.7-6.5-12.6-11.9-17.4-19.3c-1.8-2.8-5.5-4.4-8.5-3.3c-3.1,1.1-7.2,2-7.9,6.4c-0.6,3.9-0.2,7.8,3.5,10
			C229.1,174.7,241.1,177.8,252.8,184.1z M259.6,179.7c-1-8.3-0.6-16.4,1-24.4c0.4-2.1-1.5-3.2-3.5-3.7c-7.4-1.8-7.4-1.8-6.5-8.8
			c0-0.2-0.4-0.5-0.7-0.8c-2.4,0.2-2.9,1.9-2.8,4c0.2,2.4-0.9,4.2-2.5,5.9c-4.2,4.5-4.7,8.8-0.7,13.6
			C248.4,170.7,253.2,175.8,259.6,179.7z M284.5,183.3c10.3-7,17.8-14.2,21.8-24.9c-5.6-1-9.9-3.8-14.9-4.7
			c-3.3-0.6-4.8,0.3-5.6,3.3C283.7,165.3,284.6,173.5,284.5,183.3z M302,177.2c0.3,0.4,0.5,0.8,0.8,1.2c4.5-0.5,9.1-0.9,13.5-1.7
			c6.2-1,11.8-8.6,11.3-14.8c-0.1-0.9-0.2-1.7-1-2.2c-1.8-1.1-12.8,0.4-14,2.2C309.2,167.1,306,172.4,302,177.2z M375.6,146.6
			c2.8,1.5,4.8,2.8,6.9,3.7c4.4,2,8.3,0.5,11.9-2.1c3.3-2.4,6.5-5.1,6-9.9c-0.2-2-0.9-3.7-3-4.2c-3.4-0.8-6,0.9-8.2,3.1
			c-1.5,1.5-0.8,3.2,0.3,4.6c1.2,1.6,3.2,3,1.1,5.2c-2.1,2.1-4.2,1.3-6.5,0.1C381.8,145.8,379.2,144.4,375.6,146.6z M201.4,163.8
			c2.6,1.1,5.1,2.2,8.5,1.3c-1.4-3.3-2.5-6.4-3.9-9.4c-0.6-1.2-1.8-2.2-3.3-1.7c-1.6,0.5-2.1,1.9-1.4,3.2
			C202.4,159.4,200.9,161.5,201.4,163.8z M267.5,230.3c0,7.6,0,15.3,0,22.9c0.5,0,1,0,1.4,0C268.5,245.5,269.7,237.8,267.5,230.3z
			 M328.1,146.4c-0.7-4-2.1-7-5.6-7.7c-2.9-0.6-3.7,2.2-5.2,4.7C321,144.4,324.2,145.3,328.1,146.4z M268.4,271.7
			c-0.3,0-0.5,0-0.8,0c0,16.5,0,32.9,0,49.4c0.3,0,0.5,0,0.8,0C268.4,304.6,268.4,288.2,268.4,271.7z M278.8,273.6
			c0.1,4.8-0.5,8.1,0.5,12.2C282.5,281.6,283.7,278.2,278.8,273.6z M262,336.1c-2-3-4-6-6.7-10C256.2,330.5,258.1,333.6,262,336.1z"
			/>
		<path id="XMLID_134_" class="st0" d="M422.9,147.1c-0.5-4.4,0.2-8.2,0.7-12.1c8.8,1.9,17.5,2.2,26.3,2c-6.9-7.6-16.4-10.8-25-16.9
			c10.2-4.9,20.9-6.7,30.4-12c-9.8,1.3-19.6-6.4-29.6,0.2c0.2-2.9,0.4-6.2,0.6-9.5c3.2,7.4,10.1,4.3,15,5.4
			c5.2,1.2,10.9,0.5,16.3,0.9c3,0.2,4.6-1.3,6.8-3.3c-0.3,4.2-0.6,8.3-0.9,12.5c-0.2,2.4-2.2,2.8-3.9,3.4
			c-6.7,2.2-13.5,4.4-20.9,6.8c4.1,4.4,9.1,5.8,13.3,8.3c10.7,6.4,11.2,7.5,7.3,21c-0.7-4.7-3.2-6-6.9-6.2c-7-0.4-13.9-1.2-20.9-1.9
			C428.6,145.3,425.8,145.4,422.9,147.1z"/>
		<path id="XMLID_131_" class="st0" d="M93.6,254.9c0.1-11.4,8.7-19.7,20.3-19.6c10.4,0.1,19.6,9.4,19.5,19.7
			c-0.1,16.4-10.3,22-21,22.1C101.5,277.1,93.4,267.4,93.6,254.9z M96.2,259.5c-0.2,5,2.7,7.8,8.9,8.1c7.7,0.3,14.8-2.2,21.1-6.6
			c4-2.7,5.5-6.5,3.8-11.1c-1.7-4.5-5.5-5.9-9.9-5.5c-6.9,0.5-13.4,2.7-19.1,6.7C97.9,253.1,95.6,255.8,96.2,259.5z"/>
		<path id="XMLID_128_" class="st0" d="M450.9,213.2c-1.3,10.2-2.7,20.1-10.3,27.8c-4.4,4.4-13.4,5.2-20.2,1.9
			c-6.5-3.1-11.5-10.6-10.5-17.2c1-6.7,2.9-13.2,4.5-20.4c5.8,4.1,12.1,4.8,18.1,5.9C438.2,212.3,443.8,216.8,450.9,213.2z
			 M445.4,224.6c-9-2.3-17.7-4.5-26.4-6.7c-5.5-1.3-7.3,0.5-6.1,6.1c0.5,2.1,1.5,3.8,3.3,5c6.6,4.5,13.8,6.6,21.8,5.3
			C443,233.6,445.2,230.6,445.4,224.6z"/>
		<path id="XMLID_127_" class="st0" d="M443.5,193.6c6.8-0.5,9.2-4.8,10.4-10.3c0.5-2.2,0.5-4.3-2.3-4.7c-3.7-0.5-7.2-1.9-11.2-1.5
			c-1.9,3.9,1.9,5.7,3.3,8.8c-5.7,1.6-10.1-2.1-15.3-2.5c3.2-1.8,7.4-1.5,9.1-6.5c-4.5-2.1-9.4-2.6-14.2-3.1
			c-0.9-0.1-1.4,0.8-1.8,1.6c-2.9,5.3-0.5,13.6,5,17.1c-6,2-10-1.1-9.1-6.9c1.2-7.4,3.3-14.6,3.6-22.2c0-0.7,0.6-1.5,1-2.2
			c6,5.4,32.4,8.7,36.9,4.4c0.9,5.7-2.2,10.5-2.5,15.8c-0.2,3.4-1.6,6.9-1.5,10.2c0.1,4.1-1.2,5.3-5,4.3
			C447.9,195.4,445.7,195.9,443.5,193.6z"/>
		<path id="XMLID_126_" class="st0" d="M376.5,389.6c-0.9,3.6-3.6,5.8-5.6,9c1.4-7.2-4.7-9-8.4-12.2c-6.2-5.3-12.9-10-19.4-14.9
			c0.1-0.5,0.1-1.1,0.2-1.6c12.4-0.5,24.7-1,37.3-1.5c-3.1-6.8-19.2-16.8-24.1-15.3c1-3.1,2.6-5.7,5.4-7.5
			c1.2,5.8,22.8,21.8,30.2,22.1c-2.3,5.9-6,9.5-12.6,9.8c-6.9,0.3-13.9,0.7-21.2,1.1C364.7,386.5,371.3,390.5,376.5,389.6z"/>
		<path id="XMLID_125_" class="st0" d="M181.7,379.8c6.1-7.9,9.5-8,15.2-0.8c4.2,5.3,8.7,10.4,12.9,15.4
			c-11.1,6.9-19.7,16-28.5,25.8c-6.1-6.6-12.3-13.4-18.8-20.4c3-2.5,5.7-4.8,8.3-7c-1.9,5.6-1.5,10.4,2.7,14.8c2,2,3.6,2.3,5.6,0.5
			c1.8-1.6,3.5-3.2,5.2-4.9c1-1,2.6-2,1.4-3.8c-1-1.4-2.5-1.8-4.1-1.4c-1.8,0.5-3.5,1.2-5.5,1.4c3.2-4.3,6.5-8.3,11.5-10.7
			c1.4,2.8-1.1,2.6-1,3.7c0.1,1.7-1.1,3.6,1.1,5c2.1,1.4,3.1-0.3,4.3-1.3c1.1-1,2.3-2,3.3-3.2c1.8-2,5.9-3.2,4.2-6.7
			c-2-4-5.2-7.3-10.2-7.4C186.9,378.7,184.4,379.4,181.7,379.8z"/>
		<path id="XMLID_124_" class="st0" d="M134.6,356.6c2.7-1.7,5.5-3.5,8.4-5.2c1,2.6-1,4.2-1.2,6.2c-0.1,1.9-0.6,3.8-0.3,5.6
			c0.5,3.6,2.3,6.9,6.3,6.6c4-0.3,4.8-3.8,4.5-7.3c-0.3-3.6-0.9-7.1-1.1-10.7c-0.4-7.6,3.1-12.8,9.2-13.9c6.1-1.1,12.5,3.3,14.6,10
			c1,3.1,0.6,6.9,5.1,8.3c-3.1,2.9-6,4.9-10.1,5.5c0.9-2.6,1.5-4.9,2.5-6.9c1.6-3.2,0.6-6-0.8-8.8c-1.4-2.7-3.6-4.8-7-3.9
			c-3.2,0.8-4,3.6-3.9,6.4c0.1,4.3,0.8,8.5,0.8,12.7c0,8.1-4.7,13.2-12.1,13.5c-4,0.2-10.5-6.3-10.9-11.7
			C138.3,359.8,135.8,358.9,134.6,356.6z"/>
		<path id="XMLID_123_" class="st0" d="M250.3,24.7c5.4,0,10.7,0,16.1,0c-1.9,2.1-2.8,4.5-2.7,7.5c0.2,7.3,0,14.7,0.2,22
			c0.1,2.4-1.5,5.9,1.7,6.8c3.8,1.1,8,1.7,11.7-1.1c3-2.3,4.1-5.7,6.3-9.6c1,4.7-0.1,8.3-0.6,12c-0.2,1.5-1.6,1.6-2.8,1.6
			c-9.7,0-19.4,0-29.5-0.5c3.7-1.6,3.8-4.6,3.8-7.6c0-7-0.1-14,0-21C254.5,30.9,254.8,26.9,250.3,24.7z"/>
		<path id="XMLID_122_" class="st0" d="M383.2,62.9c-4.9,1.3-11.9,1.4-17.1,0.2c3.6-1.1,3.8-3.6,3.8-6.4c0-8,0.1-16,0.1-24
			c0-1.7,0.9-4.1-1.3-5c-2.4-1-4.6-0.1-6.7,1.4c-1.9,1.4-2.2,3.7-3.8,5.9c-1.4-2.5-0.6-4.8-0.8-7c-0.2-2.4,1.1-3.3,3.4-3.3
			c9.2,0.1,18.4,0,27.6,0c2.4,0,3.5,0.9,3.4,3.3c-0.1,2.2,0,4.3,0,7.4c-3.1-2.6-3.3-6.1-6.5-7.3c-4.1-1.5-5.8-0.7-5.8,3.5
			c0,8.9,0.1,17.7,0.1,26.6C379.6,60.4,379.9,62.4,383.2,62.9z"/>
		<path id="XMLID_121_" class="st0" d="M203.7,24.8c5.7,0,11.3,0,17,0c-4.5,1.4-3.8,5.2-3.8,8.5c-0.1,6.8,0.1,13.6,0.1,20.5
			c0,4.6,1.3,8.1,6.6,8.6c5.1,0.5,9.2-2.3,9.7-7.6c0.6-6.4,0.4-12.9,0.5-19.4c0.1-3.8,0.9-8-4-10.3c3.6,0,7.1,0,12,0
			c-5.9,1.9-5.5,5.8-5.5,9.7c0,5.8-0.1,11.6-0.1,17.4c-0.1,9.3-6.5,12.6-15.9,13.1c-7.7,0.4-12.7-5-12.5-13.4
			c0.1-6.3-0.2-12.6,0-18.9C207.8,29.4,207.1,26.8,203.7,24.8z"/>
		<path id="XMLID_120_" class="st0" d="M387,310.3c-5.1-3.1-4-8.1-3.4-12.5c1.3-11.1,13.3-18.8,24.1-16
			c13.5,3.5,19.6,19.9,12.4,31.8c-1.3,2.2-5.3,0.2-4.7,4.2c0.3,2.1-2.3,4-1.4,7c-4.2-0.9-7-3-10-5.2c1.6-1.4,3.2-0.7,4.7-0.9
			c9.6-1.3,13.6-11.3,7.6-19c-5-6.4-11.9-9.1-19.7-9.3c-7.5-0.2-12.6,7.3-10.9,15.1C386,307.1,386.5,308.7,387,310.3z"/>
		<path id="XMLID_117_" class="st0" d="M137.5,63.2c-5.1,0.9-9.9,0.8-15.5,0.4c3.5-2,3.8-4.7,3.8-7.8c-0.2-7.2-0.2-14.3,0-21.5
			c0.1-3.9,0.1-7.4-4.5-9.3c7.7-0.4,15.1-1.4,22.4,0.4c5.6,1.4,8.7,5,8.7,9.9c0,5-3.6,8.8-9.2,10c-9.3,2-9.3,2-8.8,11.8
			C134.4,59.7,134.6,62,137.5,63.2z M134.3,35.1c0,1.5,0,3,0,4.6c0,1.5-0.4,3.2,1.4,4c1.7,0.7,3.4-0.1,4.7-1.1
			c3.7-2.7,3.7-11.3,0-14.1c-1.4-1-3-1.9-4.7-1.3c-2.2,0.8-1.2,2.9-1.4,4.4C134.2,32.7,134.3,33.9,134.3,35.1z"/>
		<path id="XMLID_114_" class="st0" d="M108.6,128.1c0.1,0.4,0.5,1,0.5,1.7c0.5,4.4,1,8.8,1.6,13.9c-4-3.5-6.7-0.9-9.4,1.2
			c-1.5,1.2-1,11.8,0.6,13.7c2.8,3.4,6,0.9,9.4,0.6c0.6,2.1,2.4,4.2,1.4,6.7c-13-5.3-26.3-9.2-40.2-13.8
			C84.3,143,97.9,137.9,108.6,128.1z M98.3,157.2c0.1-3.4-0.5-6.4-1.4-9.7c-3.6,1.6-6.7,3.4-9.3,6.5
			C91.2,155.6,94.4,156.8,98.3,157.2z"/>
		<path id="XMLID_113_" class="st0" d="M345.7,25c0,4,0,7.5,0,12.1c-2-3.2-3.1-5.5-4.8-7.5c-3.9-4.5-9-4.6-12.9-0.7
			c-1.7,1.8-1.9,3.2,0.1,5c2.5,2.2,5.3,3.7,8.2,5.1c1.4,0.7,2.8,1.3,4.1,2.1c7.4,4.5,9.8,10.2,6.9,16.5c-2.7,5.8-9.7,8.4-17.2,6.1
			c-2.5-0.8-4.9-2.5-7.8,0.3c-1.1-4.6-0.7-8.7-0.3-13.2c2.2,1.2,1.9,3.2,2.6,4.5c2.4,4.5,5.8,7.1,10.9,7.1c2.8,0,5.2-0.7,6.1-3.6
			c1-2.8-0.3-5-2.4-6.7c-1.3-1.1-2.9-1.8-4.3-2.6c-1.9-1.1-4-1.9-5.9-3c-6.2-3.6-8.8-10-6.5-15.5c2.4-5.7,9-8.3,16-6
			C340.9,25.8,343.1,26.6,345.7,25z"/>
		<path id="XMLID_112_" class="st0" d="M108.7,302.5c4.4-2.1,7.7-3.7,12.2-5.8c-2,3.5-3.2,5.8-4.7,8c-2.4,3.7-2.1,7.4,0.4,10.7
			c2.8,3.7,6.5,6.1,11.5,5.4c6.1-0.9,11.4-3.6,16-7.7c7.5-6.8,6.3-15.5-2.5-20.6c-1.3-0.7-3-0.7-3.9-2.5c1.8-1.8,3.5-0.4,4.9,0.4
			c9.3,5.2,13.3,18.6,8.4,28.1c-4.8,9.5-17,13.7-26.8,8.3c-6.4-3.5-11.4-9.1-11.5-17.3C112.8,306.9,112.4,304.4,108.7,302.5z"/>
		<path id="XMLID_109_" class="st0" d="M179.8,63.5c2.5-4,1.1-7.3-1.8-9.8c-2.5-2.1-12.1-1-13.3,1.3c-1.6,2.9-3.2,6.1,1.9,8.1
			c-3.4,1.1-6.3,1-9.3,0.3c7.4-12.4,10.5-26.6,18.5-39.2c5.7,13.2,11.2,25.9,16.9,39.1C188.6,64.1,184.4,63.7,179.8,63.5z
			 M166.7,49.9c3.7,0.2,6.8,0.7,10.5-0.5c-2.2-3.6-2.3-7.7-5.5-10.4C168.9,42.1,167.8,45.6,166.7,49.9z"/>
		<path id="XMLID_106_" class="st0" d="M415.2,24.3c7,13,10.5,26.7,17.9,38.9c-4.4,1.3-8.9,0.3-13.5,0.7c1.8-4.5,0.7-9.2-2.3-10.6
			c-3-1.4-11.8-0.5-12.9,1.5c-1.6,3-3.6,6.3,2.1,8.3c-3.8,1.1-7,0.8-10.2,0.5C404.5,51.6,407.8,37.6,415.2,24.3z M411.7,37.7
			c-2.1,4.7-3.7,8.2-5.6,12.2c4-0.3,7.4,1.2,10.3-1.1C415,45.4,413.6,42.2,411.7,37.7z"/>
		<path id="XMLID_105_" class="st0" d="M121.8,211.2c-13.3,1.3-25,4.2-36.9,8.4c-1.3-3.6-2.2-7.6-2.4-12.4c4.1,2.4,7.8,0.6,11.5-0.2
			c6.2-1.4,12.3-2.8,18.5-4c3.6-0.7,4.7-2.5,4.1-6.1c-1.2-7.2-5.2-11.4-13.9-12.1c4.4-2.7,8-2.3,11.3-2.8c0.8-0.1,1.7,0.6,1.9,1.5
			C117.8,192.6,119.8,202,121.8,211.2z"/>
		<path id="XMLID_102_" class="st0" d="M310.4,409.6c2.5-3.3,5-6.4,8.3-9.3c2,3.4,4.9,5.2,8.2,5.9c1.8,0.4,9.2-8.5,9.1-10.4
			c-0.1-4-2.7-5.9-6.5-6.9c0.6-3.2,3.3-4,4.6-5.7c5.4,13.2,10.7,26.2,16.7,40.8C336.5,418.9,323.8,414.4,310.4,409.6z M342.5,411
			c-1.4-4.4-2.6-7.7-4.9-10.9c-2.5,2.3-4.8,4.1-6,7.3C334.8,409.1,338.1,410.1,342.5,411z"/>
		<path id="XMLID_101_" class="st0" d="M367.5,332.7c2.4-4.6,4.6-8.8,7-13.4c1.5,6.6,26.4,20.8,32.9,18.7c-1.8,5.4-4.5,10-7.5,14.6
			C399.1,347.6,376.6,333.8,367.5,332.7z"/>
		<path id="XMLID_100_" class="st0" d="M310.6,24.8c-2.9,1.7-3.7,3.9-3.6,7c0.1,8.5,0.1,17,0,25.5c0,2.5,0.1,4.8,4.7,5.7
			c-6.8,1.2-11.9,0.7-18.6,0.6c4.3-2,4.8-4.4,4.7-7.5c-0.2-7-0.1-14-0.1-20.9c0-3.8,0.8-7.9-3.6-10.5
			C299.7,24.8,305.2,24.8,310.6,24.8z"/>
		<path id="XMLID_99_" class="st0" d="M398.6,262.4c0.8-3.6,1.8-7.6,2.8-12.2c5.9,5.7,29.5,13.8,36.4,12.8
			c-0.8,4.5-2.4,8.5-3.8,12.2C423,269.4,410.9,266.7,398.6,262.4z"/>
		<path id="XMLID_98_" class="st0" d="M256.7,449.2c6.5-0.3,9.4,6.8,8.7,11.7c-0.9,6-6.3,10.4-12.3,9.6c-2.4-0.3-5-0.6-5.1-3.8
			c-0.1-1.5,1-2.5,2.5-2.8c2-0.4,2.9,0.8,3.8,4.9c4.8-0.2,3.4-4.3,5.6-7.2c-5.2,0.1-10,1.8-12.2-3.3c-1.1-2.5-0.9-5.2,1.3-7.5
			c2.4-2.5,4.8-3.3,7.9-1.5c-3.7,1.4-4.4,4.3-3.7,7.8c0.5,2.5,2.4,2.4,4.6,1.8C258.1,455.6,258.9,452.3,256.7,449.2z"/>
		<path id="XMLID_97_" class="st0" d="M300.3,459.4c3.8-1.5,5.3-3.2,4.8-6.2c-0.4-2.7-2.4-2.8-4.5-2.7c-1.4,0.9-0.5,2.2-0.6,3.3
			c-0.1,1.3-0.6,2.4-1.8,2.8c-2,0.7-2.6-1.3-3.6-2.2c-1.1-0.9-0.6-2,0.2-3.1c2.5-3.4,11.7-4,14.5-0.8c2.1,2.4,1.7,4.2-2.1,8.3
			c0.7,0.8,1.4,1.9,2.3,2.5c3,2,2.1,4.4,0.7,6.6c-2.4,3.6-12.7,3.8-15.5,0.4c-1.1-1.3-1.4-2.8-0.4-4.2c0.7-1.1,1.9-1.5,3.1-1.2
			c1.7,0.4,2.6,1.5,2.2,3.4c-0.2,0.8-0.6,1.6,0.4,2.5c2.3,0.8,4.4,0.4,4.8-2.4C305.3,463.4,306,459.9,300.3,459.4z"/>
		<path id="XMLID_96_" class="st0" d="M239.1,448.4c2.9,7-2.7,15.2,4,21.6c-4.3,0.5-8.4,0.7-12.9-0.2c5.4-3.6,5.2-15.6-0.5-19.1
			C233.1,449.9,236.1,449.2,239.1,448.4z"/>
		<path id="XMLID_95_" class="st0" d="M276.5,469c2.7,0.9,4-0.5,5.3-2.7c2.2-3.6-1.3-5-2.5-7.7c2.1-2.6,3.4-5.5,0.8-9.2
			c2.5,0.1,4.3-0.8,6.1,1.8c2.4,3.5-1.6,5-1.6,8.1c3.2,2.3,5.7,5.3,1.8,9.2c-2.9,3-12.2,2.8-14.8-0.2c-0.9-1.1-1.5-2.4-0.7-3.7
			c0.7-1.4,1.9-1.9,3.4-1.5c1.5,0.5,2.2,1.5,1.8,3.1C276,467.1,275.6,467.9,276.5,469z"/>
		<path id="XMLID_94_" class="st0" d="M275.9,448.9c0,2.6,2.2,5.3-1.1,6.9c-1.4,0.7-2.8-0.5-3-1.9
			C271.2,451.1,272.3,449.3,275.9,448.9z"/>
		<path id="XMLID_93_" class="st0" d="M278.2,449c-0.2,0.7-1,1-1.4,0.6c-0.7-0.7-0.1-1,0.6-1C277.7,448.6,278,448.9,278.2,449z"/>
		<path id="XMLID_92_" class="st1" d="M256.7,221.8c-9.2,2-14.1-6.8-22-8c-4.2-0.6-8-1.1-11.9,0.9c-2.1,1.1-4.4,1.8-6.7,2.2
			c-6.5,1.1-10.9,4.8-13,11c-2.3,6.6-1,12.8,3.7,18.1c7.4,8.2,17,13,27.5,16c8.5,2.4,17.1,4.8,25.7,6.8c3.4,0.8,4.5,2.3,4.3,5.6
			c-0.2,5.1-0.4,10.3,0.1,15.3c0.5,6.1-1.3,10.6-5.9,14.9c-8.4,8-9.8,19-4.3,27.9c2,3.1,4.7,5.8,7,8.7c0.9,1,2.6,2.1,2.5,3.1
			c-0.5,10.7,4.2,21.9-5,31.6c-11.2,11.9-10.5,24.2,1.3,37.2c4.6,5,4.7,5.6,3.5,13c-6-2.9-10.6-7.4-15.4-11.6
			c-41.2-36.2-69.9-81-90.6-131.4c-13.1-31.8-22.1-64.8-28.2-98.6c-3.8-21.3-6.7-42.7-7.8-64.3c-0.6-12.6-1.5-25.1-1.9-37.8
			c-0.1-3.8,1.1-5,4.9-5c95.2,0.1,190.4,0.1,285.6,0c4.4,0,5.5,1.7,5.4,5.7c-0.7,26.9-2.7,53.7-6.7,80.3
			c-4.4,29.7-11.2,58.9-20.2,87.5c-5.1,16.3-11.4,32.1-18.5,47.6c-10.7,23.3-23.3,45.5-38.6,66.1c-13,17.6-27.5,33.8-43.9,48.3
			c-3.4,3-5.9,2.4-8.1-1.7c-1-1.9-1.2-3.9-1.2-5.9c0.1-6.5,0.3-13-0.1-19.4c-0.3-5,1.3-9.1,4.8-12.4c10.4-9.8,9.2-22,0.1-32.2
			c-3.5-4-5.4-8.1-4.9-13.4c0.1-0.5,0.1-1,0-1.5c-1.3-10.5,0.2-19.3,10.5-25.5c6-3.7,9-10.7,9.9-17.9c1.4-11.6-3.8-20.3-14.8-24.6
			c-4.2-1.6-5.8-4-5.6-8.4c0.3-9.2,0.7-18.5,0-27.6c-0.8-9.9,2.6-17.7,8.2-25.4c7.6-10.4,18.1-15.2,30.3-16.8
			c4.2-0.5,6.9-2.3,9.3-5.3c3.5-4.2,7.4-7.9,11.9-11c4.2-2.9,8.6-3.2,13.1-1.1c3.8,1.8,7.4,1.8,11.4,0.7c5.7-1.6,11.5-1.5,17,1.1
			c1.9,0.9,3.8,1.6,5.9,0.4c5.7-3.4,11.8-6.3,17.1-10.3c6.5-4.8,6.8-16.1,0.8-23.1c-2.8-3.3-4.1-6-2.6-10.4
			c1.6-4.7-0.3-9.5-4.5-12.1c-7.7-4.8-13.3-11.7-19.7-17.7c-2.4-2.3-4.7-3.4-8.2-2.5c-5.2,1.4-10.5,1.1-15.5-1.1
			c-4.2-1.9-8.3-0.5-12,0.6c-7.4,2.2-12.9-0.5-18.4-4.8c-6.2-4.9-7.2-5.2-13.2-0.1c-8.5,7.2-17,5.2-25.8,1.1
			c-5.8-2.7-11.8-1.3-15.8,3.9c-4.2,5.6-8,5.6-12,0c-5.5-7.7-8.9-8.4-17-3.6c-1.6,1-3.2,2-4.8,2.9c-7.1,3.7-8.6,5.9-14.1-1.6
			c-1.6-2.2-3.9-2.3-6.5-1.8c-3.9,0.8-7.8,2.1-10.9,4.2c-5,3.5-10.4,4-16.1,3.5c-4.8-0.5-8.7,1.1-11.6,5c-3.6,4.8-8.9,6.8-14.3,8.1
			c-5.7,1.4-8.9,4.5-10,10.1c-0.9,4.2-3.3,7.5-6.5,10.1c-7.2,6.1-9,13.1-4.7,21.6c2.5,4.8,5.8,8.9,2.3,15c-1.8,3.1,1,6,4,7.9
			c10.4,6.6,20.2,4.5,29.6-2c5.4-3.8,11.8-4.4,16.9-1.4c9.3,5.4,19.5,7,29.6,9.4c10.9,2.6,20.1,8.2,29,14.6
			c9.1,6.6,10.3,16.9,12.5,26.6c2.5,10.6,0.7,21.4,1.1,32.1c0.1,2.5-0.8,3.6-3.8,3.1c-12-2.1-23.5-5.7-34.8-10.2
			c-1.1-0.4-2.1-1.1-3.1-1.8c-3-2.2-5.7-5.1-4.3-9c1.2-3.5,4.9-3.2,8-3c3.4,0.2,6.8,0.8,10.1,1c3.5,0.3,6.7-0.1,9.5-2.8
			C248.8,223.9,253.7,225.8,256.7,221.8z"/>
		<path id="XMLID_91_" class="st1" d="M280.4,150.4c1,14.2,1.6,28.3-7.6,41.9c-6.2-9.6-11.6-18.4-9-29.7c1-4.3,2.5-8.5,3.9-12.7
			c1.5-4.5,3.5-5.1,7.3-2.5C276.7,148.5,278.5,149.4,280.4,150.4z"/>
		<path id="XMLID_90_" class="st1" d="M252.8,184.1c-11.7-6.4-23.6-9.4-34.2-15.6c-3.7-2.2-4.1-6.1-3.5-10c0.6-4.4,4.8-5.3,7.9-6.4
			c3-1.1,6.7,0.5,8.5,3.3c4.8,7.4,11.7,12.8,17.4,19.3C250.8,177,252.8,179.3,252.8,184.1z"/>
		<path id="XMLID_89_" class="st1" d="M259.6,179.7c-6.4-3.9-11.2-8.9-15.6-14.2c-4-4.7-3.5-9.1,0.7-13.6c1.6-1.7,2.6-3.5,2.5-5.9
			c-0.1-2,0.3-3.7,2.8-4c0.3,0.3,0.7,0.6,0.7,0.8c-0.9,7-0.9,7,6.5,8.8c2,0.5,3.9,1.6,3.5,3.7C258.9,163.3,258.6,171.3,259.6,179.7z
			"/>
		<path id="XMLID_88_" class="st1" d="M284.5,183.3c0.1-9.8-0.8-18,1.3-26.2c0.8-3,2.3-3.9,5.6-3.3c5,0.9,9.3,3.6,14.9,4.7
			C302.2,169.1,294.7,176.3,284.5,183.3z"/>
		<path id="XMLID_87_" class="st1" d="M302,177.2c4.1-4.8,7.2-10.1,10.7-15.3c1.2-1.7,12.2-3.3,14-2.2c0.8,0.5,1,1.3,1,2.2
			c0.4,6.3-5.1,13.8-11.3,14.8c-4.5,0.8-9,1.1-13.5,1.7C302.5,178,302.2,177.6,302,177.2z"/>
		<path id="XMLID_86_" class="st1" d="M201.4,163.8c-0.4-2.3,1.1-4.4-0.1-6.6c-0.7-1.4-0.3-2.7,1.4-3.2c1.6-0.5,2.7,0.5,3.3,1.7
			c1.4,3,2.6,6.1,3.9,9.4C206.5,166,204,164.9,201.4,163.8z"/>
		<path id="XMLID_85_" class="st1" d="M278.8,273.6c4.9,4.7,3.8,8,0.5,12.2C278.3,281.7,278.8,278.3,278.8,273.6z"/>
		<path id="XMLID_84_" class="st0" d="M299.6,119c0.8-2.4,2.8-2.2,4.3-2.7c2.4-0.8,4.8-1.3,6.2-3.8c0.8-1.4,2.3-2,3.9-1
			c1.7,1,1.3,2.4,0.9,4C312.6,123.4,309.2,124.3,299.6,119z"/>
		<path id="XMLID_83_" class="st0" d="M347.8,121.3c-0.1-3.2-1.1-6.2,2.2-7.5c1.6-0.6,3.4,0.4,3.5,2
			C353.6,118.9,351.5,120.6,347.8,121.3z"/>
		<path id="XMLID_82_" class="st0" d="M326.5,115.5c-0.1,1.2-0.5,2.3-2,2.4c-1.2,0-1.8-0.9-1.7-2c0-1.2,0.4-2.4,1.9-2.5
			C326,113.3,326.3,114.3,326.5,115.5z"/>
	</g>
</g>
</svg>
